<mxfile host="app.diagrams.net" modified="2025-03-21T12:50:00.000Z" agent="Mozilla/5.0" version="21.0.10" type="device"><diagram id="milvus-k8s-architecture" name="Milvus Kubernetes Architecture"><mxGraphModel dx="1422" dy="762" grid="1" gridSize="10" guides="1" tooltips="1" connect="1" arrows="1" fold="1" page="1" pageScale="1" pageWidth="1100" pageHeight="850" math="0" shadow="0"><root><mxCell id="0"/><mxCell id="1" parent="0"/><mxCell id="2" value="Milvus Kubernetes Deployment Architecture" style="text;html=1;strokeColor=none;fillColor=none;align=center;verticalAlign=middle;whiteSpace=wrap;rounded=0;fontSize=20;fontStyle=1" vertex="1" parent="1"><mxGeometry x="300" y="20" width="500" height="30" as="geometry"/></mxCell><mxCell id="3" value="Kubernetes Cluster" style="rounded=0;whiteSpace=wrap;html=1;fillColor=#f5f5f5;strokeColor=#666666;fontColor=#333333;verticalAlign=top;fontStyle=1;fontSize=14;" vertex="1" parent="1"><mxGeometry x="40" y="70" width="1020" height="760" as="geometry"/></mxCell><mxCell id="4" value="Milvus Namespace" style="rounded=0;whiteSpace=wrap;html=1;fillColor=#dae8fc;strokeColor=#6c8ebf;verticalAlign=top;fontStyle=1" vertex="1" parent="1"><mxGeometry x="60" y="110" width="980" height="700" as="geometry"/></mxCell><mxCell id="5" value="Services" style="rounded=0;whiteSpace=wrap;html=1;fillColor=#d5e8d4;strokeColor=#82b366;verticalAlign=top;fontStyle=1" vertex="1" parent="1"><mxGeometry x="80" y="150" width="940" height="100" as="geometry"/></mxCell><mxCell id="6" value="milvus-proxy-svc&#xa;ClusterIP / LoadBalancer&#xa;Port: 19530" style="rounded=1;whiteSpace=wrap;html=1;fillColor=#d5e8d4;strokeColor=#82b366;" vertex="1" parent="1"><mxGeometry x="100" y="180" width="160" height="60" as="geometry"/></mxCell><mxCell id="7" value="milvus-etcd-svc&#xa;ClusterIP&#xa;Port: 2379" style="rounded=1;whiteSpace=wrap;html=1;fillColor=#d5e8d4;strokeColor=#82b366;" vertex="1" parent="1"><mxGeometry x="280" y="180" width="160" height="60" as="geometry"/></mxCell><mxCell id="8" value="milvus-minio-svc&#xa;ClusterIP&#xa;Port: 9000" style="rounded=1;whiteSpace=wrap;html=1;fillColor=#d5e8d4;strokeColor=#82b366;" vertex="1" parent="1"><mxGeometry x="460" y="180" width="160" height="60" as="geometry"/></mxCell><mxCell id="9" value="milvus-pulsar-svc&#xa;ClusterIP&#xa;Port: 6650" style="rounded=1;whiteSpace=wrap;html=1;fillColor=#d5e8d4;strokeColor=#82b366;" vertex="1" parent="1"><mxGeometry x="640" y="180" width="160" height="60" as="geometry"/></mxCell><mxCell id="11" value="Deployments" style="rounded=0;whiteSpace=wrap;html=1;fillColor=#fff2cc;strokeColor=#d6b656;verticalAlign=top;fontStyle=1" vertex="1" parent="1"><mxGeometry x="80" y="270" width="940" height="180" as="geometry"/></mxCell><mxCell id="12" value="milvus-proxy&#xa;Replicas: 1+" style="rounded=1;whiteSpace=wrap;html=1;fillColor=#fff2cc;strokeColor=#d6b656;" vertex="1" parent="1"><mxGeometry x="100" y="310" width="160" height="60" as="geometry"/></mxCell><mxCell id="13" value="milvus-mixcoord&#xa;Replicas: 1+" style="rounded=1;whiteSpace=wrap;html=1;fillColor=#fff2cc;strokeColor=#d6b656;" vertex="1" parent="1"><mxGeometry x="280" y="310" width="160" height="60" as="geometry"/></mxCell><mxCell id="14" value="milvus-datanode&#xa;Replicas: 1+" style="rounded=1;whiteSpace=wrap;html=1;fillColor=#fff2cc;strokeColor=#d6b656;" vertex="1" parent="1"><mxGeometry x="460" y="310" width="160" height="60" as="geometry"/></mxCell><mxCell id="15" value="milvus-indexnode&#xa;Replicas: 1+" style="rounded=1;whiteSpace=wrap;html=1;fillColor=#fff2cc;strokeColor=#d6b656;" vertex="1" parent="1"><mxGeometry x="640" y="310" width="160" height="60" as="geometry"/></mxCell><mxCell id="16" value="milvus-querynode&#xa;Replicas: 1+" style="rounded=1;whiteSpace=wrap;html=1;fillColor=#fff2cc;strokeColor=#d6b656;" vertex="1" parent="1"><mxGeometry x="820" y="310" width="160" height="60" as="geometry"/></mxCell><mxCell id="17" value="etcd&#xa;StatefulSet&#xa;Replicas: 3" style="rounded=1;whiteSpace=wrap;html=1;fillColor=#fff2cc;strokeColor=#d6b656;" vertex="1" parent="1"><mxGeometry x="100" y="380" width="160" height="60" as="geometry"/></mxCell><mxCell id="18" value="minio&#xa;StatefulSet&#xa;Replicas: 1-4" style="rounded=1;whiteSpace=wrap;html=1;fillColor=#fff2cc;strokeColor=#d6b656;" vertex="1" parent="1"><mxGeometry x="280" y="380" width="160" height="60" as="geometry"/></mxCell><mxCell id="19" value="pulsar-zookeeper&#xa;StatefulSet&#xa;Replicas: 3" style="rounded=1;whiteSpace=wrap;html=1;fillColor=#fff2cc;strokeColor=#d6b656;" vertex="1" parent="1"><mxGeometry x="460" y="380" width="160" height="60" as="geometry"/></mxCell><mxCell id="20" value="pulsar-bookkeeper&#xa;StatefulSet&#xa;Replicas: 3" style="rounded=1;whiteSpace=wrap;html=1;fillColor=#fff2cc;strokeColor=#d6b656;" vertex="1" parent="1"><mxGeometry x="640" y="380" width="160" height="60" as="geometry"/></mxCell><mxCell id="21" value="pulsar-broker&#xa;StatefulSet&#xa;Replicas: 2" style="rounded=1;whiteSpace=wrap;html=1;fillColor=#fff2cc;strokeColor=#d6b656;" vertex="1" parent="1"><mxGeometry x="820" y="380" width="160" height="60" as="geometry"/></mxCell><mxCell id="22" value="ConfigMaps" style="rounded=0;whiteSpace=wrap;html=1;fillColor=#e1d5e7;strokeColor=#9673a6;verticalAlign=top;fontStyle=1" vertex="1" parent="1"><mxGeometry x="80" y="470" width="460" height="100" as="geometry"/></mxCell><mxCell id="23" value="milvus-config&#xa;(milvus.yaml)" style="rounded=1;whiteSpace=wrap;html=1;fillColor=#e1d5e7;strokeColor=#9673a6;" vertex="1" parent="1"><mxGeometry x="100" y="500" width="160" height="60" as="geometry"/></mxCell><mxCell id="24" value="milvus-user-config&#xa;(user.yaml)" style="rounded=1;whiteSpace=wrap;html=1;fillColor=#e1d5e7;strokeColor=#9673a6;" vertex="1" parent="1"><mxGeometry x="280" y="500" width="160" height="60" as="geometry"/></mxCell><mxCell id="25" value="Secrets" style="rounded=0;whiteSpace=wrap;html=1;fillColor=#f8cecc;strokeColor=#b85450;verticalAlign=top;fontStyle=1" vertex="1" parent="1"><mxGeometry x="560" y="470" width="460" height="100" as="geometry"/></mxCell><mxCell id="26" value="minio-secret&#xa;(access/secret keys)" style="rounded=1;whiteSpace=wrap;html=1;fillColor=#f8cecc;strokeColor=#b85450;" vertex="1" parent="1"><mxGeometry x="580" y="500" width="160" height="60" as="geometry"/></mxCell><mxCell id="28" value="Persistent Volume Claims" style="rounded=0;whiteSpace=wrap;html=1;fillColor=#ffe6cc;strokeColor=#d79b00;verticalAlign=top;fontStyle=1" vertex="1" parent="1"><mxGeometry x="80" y="590" width="940" height="100" as="geometry"/></mxCell><mxCell id="29" value="etcd-data-pvc&#xa;Size: 10Gi" style="rounded=1;whiteSpace=wrap;html=1;fillColor=#ffe6cc;strokeColor=#d79b00;" vertex="1" parent="1"><mxGeometry x="100" y="620" width="160" height="60" as="geometry"/></mxCell><mxCell id="30" value="minio-data-pvc&#xa;Size: 500Gi" style="rounded=1;whiteSpace=wrap;html=1;fillColor=#ffe6cc;strokeColor=#d79b00;" vertex="1" parent="1"><mxGeometry x="280" y="620" width="160" height="60" as="geometry"/></mxCell><mxCell id="31" value="pulsar-journal-pvc&#xa;Size: 100Gi" style="rounded=1;whiteSpace=wrap;html=1;fillColor=#ffe6cc;strokeColor=#d79b00;" vertex="1" parent="1"><mxGeometry x="460" y="620" width="160" height="60" as="geometry"/></mxCell><mxCell id="32" value="pulsar-ledgers-pvc&#xa;Size: 200Gi" style="rounded=1;whiteSpace=wrap;html=1;fillColor=#ffe6cc;strokeColor=#d79b00;" vertex="1" parent="1"><mxGeometry x="640" y="620" width="160" height="60" as="geometry"/></mxCell><mxCell id="34" value="Network Flow" style="rounded=0;whiteSpace=wrap;html=1;fillColor=#dae8fc;strokeColor=#6c8ebf;verticalAlign=top;fontStyle=1" vertex="1" parent="1"><mxGeometry x="80" y="710" width="940" height="80" as="geometry"/></mxCell><mxCell id="35" value="Client → Proxy → Coordinators → Worker Nodes → Storage (etcd, MinIO, Pulsar)" style="text;html=1;strokeColor=none;fillColor=none;align=center;verticalAlign=middle;whiteSpace=wrap;rounded=0;fontSize=14;" vertex="1" parent="1"><mxGeometry x="100" y="750" width="900" height="30" as="geometry"/></mxCell></root></mxGraphModel></diagram></mxfile>
